<!DOCTYPE svg PUBLIC "-//W3C//DTD SVG 1.1//EN" "http://www.w3.org/Graphics/SVG/1.1/DTD/svg11.dtd">
<!-- Uploaded to: SVG Repo, www.svgrepo.com, Transformed by: SVG Repo Mixer Tools -->
<svg fill="#938e06" height="800px" width="800px" version="1.1" id="Layer_1" xmlns="http://www.w3.org/2000/svg" xmlns:xlink="http://www.w3.org/1999/xlink" viewBox="0 0 512 512" xml:space="preserve" stroke="#938e06">
<g id="SVGRepo_bgCarrier" stroke-width="0"/>
<g id="SVGRepo_tracerCarrier" stroke-linecap="round" stroke-linejoin="round"/>
<g id="SVGRepo_iconCarrier"> <g> <g> <g> <polygon points="320,12.499 320,127.998 435.499,127.998 "/> <path d="M298.667,170.667c-11.776,0-21.333-9.536-21.333-21.333V0h-192C73.557,0,64,9.536,64,21.333v469.333 C64,502.464,73.557,512,85.333,512h341.333c11.776,0,21.333-9.536,21.333-21.333v-320H298.667z M170.667,128h42.667 c11.776,0,21.333,9.536,21.333,21.333c0,11.797-9.557,21.333-21.333,21.333h-42.667c-11.776,0-21.333-9.536-21.333-21.333 C149.333,137.536,158.891,128,170.667,128z M341.333,384H170.667c-11.776,0-21.333-9.536-21.333-21.333 s9.557-21.333,21.333-21.333h170.667c11.776,0,21.333,9.536,21.333,21.333S353.109,384,341.333,384z M341.333,277.333H170.667 c-11.776,0-21.333-9.536-21.333-21.333s9.557-21.333,21.333-21.333h170.667c11.776,0,21.333,9.536,21.333,21.333 S353.109,277.333,341.333,277.333z"/> </g> </g> </g> </g>
</svg>